  <svg
    xmlns="http://www.w3.org/2000/svg"
    viewBox="0 0 640 512"
    width={size}
    height={size}
    className={className}
    aria-hidden="true"
  >
    <path
      fill={color}
      d="M32,224H64V416H32A32,32,0,0,1,0,384V256A32,32,0,0,1,32,224Zm512-48V448a64,64,0,0,1-64,64H160a64,64,0,0,1-64-64V176a79.9,79.9,0,0,1,8-32.4A64.1,64.1,0,0,0,96,168h8a64,64,0,1,0,128,0h0a64,64,0,1,0,128,0h0a64.1,64.1,0,0,0-8,24.4V416H608V224a32,32,0,0,1,32,32V384A32,32,0,0,1,608,224ZM213.3,341.3a21.3,21.3,0,1,0-21.3,21.3A21.3,21.3,0,0,0,213.3,341.3Zm192,0a21.3,21.3,0,1,0-21.3,21.3A21.3,21.3,0,0,0,405.3,341.3ZM192,256a21.3,21.3,0,1,1,21.3-21.3A21.3,21.3,0,0,1,192,256Zm256,0a21.3,21.3,0,1,1,21.3-21.3A21.3,21.3,0,0,1,448,256Z"
    />
  </svg>